<?xml version="1.0" encoding="UTF-8" standalone="no"?>
<!DOCTYPE svg PUBLIC "-//W3C//DTD SVG 1.1//EN" "http://www.w3.org/Graphics/SVG/1.1/DTD/svg11.dtd">
<svg width="100%" height="100%" viewBox="0 0 50 50" version="1.1" xmlns="http://www.w3.org/2000/svg" xmlns:xlink="http://www.w3.org/1999/xlink" xml:space="preserve" xmlns:serif="http://www.serif.com/" style="fill-rule:evenodd;clip-rule:evenodd;stroke-linecap:round;stroke-linejoin:round;stroke-miterlimit:1.5;">
    <g transform="matrix(0.922344,0,0,0.92117,2,2.11705)">
        <g id="universe">
            <ellipse cx="24.936" cy="24.841" rx="24.936" ry="24.968" style="fill:rgb(235,235,235);fill-opacity:0;stroke:rgb(76,82,103);stroke-width:2.26px;"/>
        </g>
    </g>
    <g id="man" transform="matrix(1,0,0,1,0,2)">
        <g transform="matrix(1,0,0,1,-3,-1)">
            <path d="M25,40.924L25,19" style="fill:none;stroke:rgb(0,108,191);stroke-width:2.08px;stroke-linecap:square;stroke-linejoin:miter;"/>
        </g>
        <g transform="matrix(1,0,0,1,-3,-1)">
            <path d="M26,40.924L26,25" style="fill:none;stroke:rgb(0,108,191);stroke-width:2.08px;stroke-linecap:square;stroke-linejoin:miter;"/>
        </g>
        <g transform="matrix(1,0,0,1,3,-1)">
            <path d="M24.968,18.933L25,40.924" style="fill:none;stroke:rgb(0,108,191);stroke-width:2.08px;stroke-linecap:square;stroke-linejoin:miter;"/>
        </g>
        <g transform="matrix(1,0,0,1,3,-1)">
            <path d="M23.968,29L24,40.924" style="fill:none;stroke:rgb(0,108,191);stroke-width:2.08px;stroke-linecap:square;stroke-linejoin:miter;"/>
        </g>
        <g transform="matrix(0.42255,0,0,0.593962,14.4631,5.83019)">
            <ellipse cx="24.936" cy="8.704" rx="4.733" ry="3.367" style="fill:rgb(0,108,191);"/>
        </g>
        <g transform="matrix(1,0,0,1,0,2)">
            <path d="M36,8L25,17L14,8" style="fill:none;stroke:rgb(0,108,191);stroke-width:2.92px;stroke-linecap:square;stroke-linejoin:miter;"/>
        </g>
        <path d="M22.5,29L25,27L27.5,29" style="fill:none;stroke:rgb(0,108,191);stroke-width:2.08px;stroke-linecap:square;stroke-linejoin:miter;"/>
        <g transform="matrix(1.20911,0,0,1.66144,-5.30495,-15.6851)">
            <rect x="22.236" y="18.297" width="5.337" height="8.958" style="fill:rgb(0,108,191);"/>
        </g>
    </g>
</svg>
