<?xml version="1.0" encoding="UTF-8" standalone="no"?>
<!DOCTYPE svg PUBLIC "-//W3C//DTD SVG 1.1//EN" "http://www.w3.org/Graphics/SVG/1.1/DTD/svg11.dtd">
<svg width="100%" height="100%" viewBox="0 0 50 50" version="1.1" xmlns="http://www.w3.org/2000/svg" xmlns:xlink="http://www.w3.org/1999/xlink" xml:space="preserve" xmlns:serif="http://www.serif.com/" style="fill-rule:evenodd;clip-rule:evenodd;stroke-linecap:round;stroke-linejoin:round;stroke-miterlimit:1.5;">
    <g transform="matrix(0.922344,0,0,0.92117,2,2.11705)">
        <g id="universe">
            <ellipse cx="24.936" cy="24.841" rx="24.936" ry="24.968" style="fill:rgb(235,235,235);fill-opacity:0;stroke:rgb(76,82,103);stroke-width:2.26px;"/>
        </g>
    </g>
    <g id="plant" transform="matrix(1,0,0,1,0,2)">
        <path d="M26.627,8.699L23.373,8.699L14.917,19.269L14.917,29.042L25,36.604L35.083,29.042L35.083,19.269L26.627,8.699ZM25,10L17,20L17,28L25,34L33,28L33,20L25,10Z" style="fill:rgb(84,178,69);"/>
        <g transform="matrix(1,0,0,1,0,-1)">
            <path d="M23,41L24,40L25,36L25,15" style="fill:none;stroke:rgb(84,178,69);stroke-width:2.08px;stroke-linecap:square;stroke-linejoin:miter;"/>
        </g>
        <g transform="matrix(1,0,0,1,0,-1)">
            <path d="M25,31L31,26.5" style="fill:none;stroke:rgb(84,178,69);stroke-width:2.08px;stroke-linecap:butt;stroke-linejoin:miter;"/>
        </g>
        <g transform="matrix(1,0,0,1,0,-1)">
            <path d="M25,26L31,21.5" style="fill:none;stroke:rgb(84,178,69);stroke-width:2.08px;stroke-linecap:butt;stroke-linejoin:miter;"/>
        </g>
        <g transform="matrix(1,0,0,1,0,-1)">
            <path d="M25,21L29,18" style="fill:none;stroke:rgb(84,178,69);stroke-width:2.08px;stroke-linecap:butt;stroke-linejoin:miter;"/>
        </g>
    </g>
</svg>
