<?xml version="1.0" encoding="UTF-8" standalone="no"?>
<!DOCTYPE svg PUBLIC "-//W3C//DTD SVG 1.1//EN" "http://www.w3.org/Graphics/SVG/1.1/DTD/svg11.dtd">
<svg width="100%" height="100%" viewBox="0 0 50 50" version="1.1" xmlns="http://www.w3.org/2000/svg" xmlns:xlink="http://www.w3.org/1999/xlink" xml:space="preserve" xmlns:serif="http://www.serif.com/" style="fill-rule:evenodd;clip-rule:evenodd;stroke-linecap:round;stroke-linejoin:round;stroke-miterlimit:1.5;">
    <g transform="matrix(0.922344,0,0,0.92117,2,2.11705)">
        <g id="universe">
            <ellipse cx="24.936" cy="24.841" rx="24.936" ry="24.968" style="fill:rgb(235,235,235);fill-opacity:0;stroke:white;stroke-width:2.26px;"/>
        </g>
    </g>
    <g transform="matrix(2.19073,0,0,2.57333,-29.4053,-37.1932)">
        <g transform="matrix(1.20814,0,0,1.45223,-5.57352,-10.7949)">
            <path d="M25.732,25.655C26.193,25.564 26.657,25.537 27.127,25.485C28.022,25.386 28.936,25.213 29.894,24.515C30.175,24.31 30.478,23.906 30.631,23.402C30.854,22.671 30.77,21.735 29.907,20.946C27.88,19.091 23.538,18.488 20.77,20.862C20.037,21.491 19.821,22.402 19.809,22.735L20.564,22.749C20.575,22.474 20.748,21.722 21.353,21.203C23.764,19.136 27.544,19.658 29.31,21.273C30.017,21.92 30.075,22.69 29.893,23.289C29.776,23.672 29.566,23.986 29.353,24.142C28.543,24.731 27.767,24.873 27.011,24.956C26.44,25.019 25.88,25.053 25.321,25.184C25.226,25.206 25.053,25.29 24.999,25.502C24.928,25.773 24.941,26.492 24.922,27.343L25.677,27.352C25.692,26.702 25.684,26.133 25.714,25.792C25.718,25.744 25.726,25.694 25.732,25.655Z" style="fill:white;"/>
        </g>
        <path d="M24.98,31.06L24.96,31.06C21.899,31.063 14.501,31.835 24.915,31.837L24.968,31.837C26.245,31.837 26.575,31.643 26.422,31.449C26.269,31.254 25.634,31.06 24.98,31.06Z" style="fill:white;"/>
    </g>
</svg>
